<?xml version="1.0" encoding="utf-8"?>
<COLLADA xmlns="http://www.collada.org/2005/11/COLLADASchema" version="1.4.1" xmlns:xsi="http://www.w3.org/2001/XMLSchema-instance">
  <asset>
    <contributor>
      <author>Blender User</author>
      <authoring_tool>Blender 4.5.0 commit date:2025-07-14, commit time:17:45, hash:8cb6b388974a</authoring_tool>
    </contributor>
    <created>2025-07-24T21:53:40</created>
    <modified>2025-07-24T21:53:40</modified>
    <unit name="meter" meter="1"/>
    <up_axis>Z_UP</up_axis>
  </asset>
  <library_cameras>
    <camera id="Camera-camera" name="Camera">
      <optics>
        <technique_common>
          <perspective>
            <xfov sid="xfov">39.59775</xfov>
            <aspect_ratio>1.777778</aspect_ratio>
            <znear sid="znear">0.1</znear>
            <zfar sid="zfar">100</zfar>
          </perspective>
        </technique_common>
      </optics>
      <extra>
        <technique profile="blender">
          <shiftx sid="shiftx" type="float">0</shiftx>
          <shifty sid="shifty" type="float">0</shifty>
          <dof_distance sid="dof_distance" type="float">10</dof_distance>
        </technique>
      </extra>
    </camera>
  </library_cameras>
  <library_lights>
    <light id="Light-light" name="Light">
      <technique_common>
        <point>
          <color sid="color">1000 1000 1000</color>
          <constant_attenuation>1</constant_attenuation>
          <linear_attenuation>0</linear_attenuation>
          <quadratic_attenuation>0</quadratic_attenuation>
        </point>
      </technique_common>
      <extra>
        <technique profile="blender">
          <type sid="type" type="int">0</type>
          <flag sid="flag" type="int">0</flag>
          <mode sid="mode" type="int">2097153</mode>
          <red sid="red" type="float">1</red>
          <green sid="green" type="float">1</green>
          <blue sid="blue" type="float">1</blue>
          <energy sid="blender_energy" type="float">1000</energy>
          <spotsize sid="spotsize" type="float">75</spotsize>
          <spotblend sid="spotblend" type="float">0.15</spotblend>
          <clipsta sid="clipsta" type="float">0.04999995</clipsta>
          <clipend sid="clipend" type="float">40</clipend>
          <radius sid="radius" type="float">0.1</radius>
          <area_shape sid="area_shape" type="int">1</area_shape>
          <area_size sid="area_size" type="float">0.1</area_size>
          <area_sizey sid="area_sizey" type="float">0.1</area_sizey>
          <area_sizez sid="area_sizez" type="float">1</area_sizez>
        </technique>
      </extra>
    </light>
  </library_lights>
  <library_effects>
    <effect id="Material_001-effect">
      <profile_COMMON>
        <technique sid="common">
          <lambert>
            <emission>
              <color sid="emission">0 0 0 1</color>
            </emission>
            <diffuse>
              <color sid="diffuse">0.1315898 0.4019505 0.8000315 0.4</color>
            </diffuse>
            <index_of_refraction>
              <float sid="ior">1</float>
            </index_of_refraction>
          </lambert>
        </technique>
      </profile_COMMON>
    </effect>
  </library_effects>
  <library_images/>
  <library_materials>
    <material id="Material_001-material" name="Material.001">
      <instance_effect url="#Material_001-effect"/>
    </material>
  </library_materials>
  <library_geometries>
    <geometry id="WorkSpace_2-mesh" name="WorkSpace_2">
      <mesh>
        <source id="WorkSpace_2-mesh-positions">
          <float_array id="WorkSpace_2-mesh-positions-array" count="144">0.398 0.1077499 0.2275 0.399 0.10675 0.2275 0.398 0.10675 0.2285 0.398 0.10675 0.1784999 0.399 0.10675 0.1795 0.398 0.1077499 0.1795 0.302 0.1077499 0.2275 0.302 0.10675 0.2285 0.301 0.10675 0.2275 0.399 0.04074996 0.2275 0.398 0.03974997 0.2275 0.398 0.04074996 0.2285 0.302 0.10675 0.1784999 0.302 0.1077499 0.1795 0.301 0.10675 0.1795 0.398 0.04074996 0.1784999 0.398 0.03974997 0.1795 0.399 0.04074996 0.1795 0.301 0.04074996 0.2275 0.302 0.04074996 0.2285 0.302 0.03974997 0.2275 0.302 0.04074996 0.1784999 0.301 0.04074996 0.1795 0.302 0.03974997 0.1795 0.401 0.10975 0.2315 0.402 0.10975 0.2305 0.401 0.11075 0.2305 0.401 0.11075 0.1765 0.402 0.10975 0.1765 0.401 0.10975 0.1755 0.299 0.10975 0.2315 0.299 0.11075 0.2305 0.298 0.10975 0.2305 0.401 0.03774994 0.2315 0.401 0.03674995 0.2305 0.402 0.03774994 0.2305 0.299 0.11075 0.1765 0.299 0.10975 0.1755 0.298 0.10975 0.1765 0.402 0.03774994 0.1765 0.401 0.03674995 0.1765 0.401 0.03774994 0.1755 0.299 0.03774994 0.2315 0.298 0.03774994 0.2305 0.299 0.03674995 0.2305 0.299 0.03674995 0.1765 0.298 0.03774994 0.1765 0.299 0.03774994 0.1755</float_array>
          <technique_common>
            <accessor source="#WorkSpace_2-mesh-positions-array" count="48" stride="3">
              <param name="X" type="float"/>
              <param name="Y" type="float"/>
              <param name="Z" type="float"/>
            </accessor>
          </technique_common>
        </source>
        <source id="WorkSpace_2-mesh-normals">
          <float_array id="WorkSpace_2-mesh-normals-array" count="264">-0.5773531 -0.5773445 -0.5773531 -0.577356 -0.5773474 0.5773474 -0.7071121 -0.7071016 0 -0.7071121 -0.7071016 0 0.5773531 -0.5773445 -0.5773531 -0.5773531 0.5773445 -0.5773531 0.577356 -0.5773474 0.5773474 0.7071121 -0.7071016 0 0.7071121 -0.7071016 0 -0.577356 0.5773474 0.5773474 -0.7071121 0.7071016 0 -0.7071121 0.7071016 0 -0.7071121 0 0.7071015 -0.7071121 0 0.7071015 0.5773531 0.5773445 -0.5773531 0 0.7071016 -0.7071121 0 0.7071016 -0.7071121 0.577356 0.5773474 0.5773474 0.7071121 0.7071016 0 0.7071121 0.7071016 0 0 0.7071068 0.7071068 0 0.7071068 0.7071068 0.7071121 0 0.7071015 0.7071121 0 0.7071015 0.7071068 0 -0.7071068 0.7071068 0 -0.7071068 0 -0.7071068 0.7071068 0 -0.7071068 0.7071068 -0.7071068 0 -0.7071068 -0.7071068 0 -0.7071068 0 -0.7071016 -0.7071121 0 -0.7071016 -0.7071121 0 -1 0 0 -1 0 -1 0 0 -1 0 0 0 1 0 0 1 0 0 0 1 0 0 1 0 0 -1 0 0 -1 1 0 0 1 0 0 0.5773431 0.577356 0.5773517 0.5773403 0.5773532 -0.5773574 -0.5773546 0.5773503 0.577346 0.5773438 -0.5773546 0.5773524 -0.5773517 0.5773475 -0.5773517 0.577341 -0.5773518 -0.5773581 -0.5773553 -0.5773488 0.5773467 -0.5773524 -0.577346 -0.5773524 -0.7071068 0 -0.7071068 -0.7071068 0 -0.7071068 0 -0.7071029 -0.7071108 0 -0.7071029 -0.7071108 -0.7071108 -0.7071028 0 -0.7071108 -0.7071028 0 0 -0.7071081 0.7071055 0 -0.7071081 0.7071055 -0.707112 0 0.7071015 -0.707112 0 0.7071015 0.7070962 0 -0.7071173 0.7070962 0 -0.7071173 0.7071002 -0.7071134 0 0.7071002 -0.7071134 0 -0.7071095 0.7071042 0 -0.7071095 0.7071042 0 0 0.7071042 -0.7071094 0 0.7071042 -0.7071094 0.7071015 0 0.7071121 0.7071015 0 0.7071121 0 0.7071095 0.7071042 0 0.7071095 0.7071042 0.7070989 0.7071147 0 0.7070989 0.7071147 0 -1 0 0 -1 0 0 0 0 -1 0 0 -1 0 -1 0 0 -1 0 0 0 1 0 0 1 1 0 0 1 0 0 0 1 0 0 1 0</float_array>
          <technique_common>
            <accessor source="#WorkSpace_2-mesh-normals-array" count="88" stride="3">
              <param name="X" type="float"/>
              <param name="Y" type="float"/>
              <param name="Z" type="float"/>
            </accessor>
          </technique_common>
        </source>
        <vertices id="WorkSpace_2-mesh-vertices">
          <input semantic="POSITION" source="#WorkSpace_2-mesh-positions"/>
        </vertices>
        <triangles material="Material_001-material" count="88">
          <input semantic="VERTEX" source="#WorkSpace_2-mesh-vertices" offset="0"/>
          <input semantic="NORMAL" source="#WorkSpace_2-mesh-normals" offset="1"/>
          <p>0 0 1 0 2 0 3 1 4 1 5 1 0 2 5 2 1 2 1 3 5 3 4 3 6 4 7 4 8 4 9 5 10 5 11 5 12 6 13 6 14 6 8 7 14 7 6 7 6 8 14 8 13 8 15 9 16 9 17 9 9 10 17 10 10 10 10 11 17 11 16 11 17 12 4 12 15 12 15 13 4 13 3 13 18 14 19 14 20 14 10 15 20 15 11 15 11 16 20 16 19 16 21 17 22 17 23 17 20 18 23 18 18 18 18 19 23 19 22 19 23 20 16 20 21 20 21 21 16 21 15 21 14 22 22 22 12 22 12 23 22 23 21 23 18 24 8 24 19 24 19 25 8 25 7 25 5 26 13 26 3 26 3 27 13 27 12 27 1 28 9 28 2 28 2 29 9 29 11 29 6 30 0 30 7 30 7 31 0 31 2 31 13 32 5 32 6 32 6 33 5 33 0 33 9 34 1 34 17 34 17 35 1 35 4 35 16 36 23 36 10 36 10 37 23 37 20 37 3 38 12 38 15 38 15 39 12 39 21 39 11 40 19 40 2 40 2 41 19 41 7 41 22 42 14 42 18 42 18 43 14 43 8 43 24 44 25 44 26 44 27 45 28 45 29 45 30 46 31 46 32 46 33 47 34 47 35 47 36 48 37 48 38 48 39 49 40 49 41 49 42 50 43 50 44 50 45 51 46 51 47 51 46 52 38 52 47 52 47 53 38 53 37 53 40 54 45 54 41 54 41 55 45 55 47 55 43 56 46 56 44 56 44 57 46 57 45 57 33 58 42 58 34 58 34 59 42 59 44 59 42 60 30 60 43 60 43 61 30 61 32 61 28 62 39 62 29 62 29 63 39 63 41 63 34 64 40 64 35 64 35 65 40 65 39 65 31 66 36 66 32 66 32 67 36 67 38 67 36 68 27 68 37 68 37 69 27 69 29 69 24 70 33 70 25 70 25 71 33 71 35 71 30 72 24 72 31 72 31 73 24 73 26 73 25 74 28 74 26 74 26 75 28 75 27 75 38 76 46 76 32 76 32 77 46 77 43 77 37 78 29 78 47 78 47 79 29 79 41 79 45 80 40 80 44 80 44 81 40 81 34 81 42 82 33 82 30 82 30 83 33 83 24 83 39 84 28 84 35 84 35 85 28 85 25 85 31 86 26 86 36 86 36 87 26 87 27 87</p>
        </triangles>
      </mesh>
    </geometry>
  </library_geometries>
  <library_visual_scenes>
    <visual_scene id="Scene" name="Scene">
      <node id="WorkSpace_2" name="WorkSpace_2" type="NODE">
        <matrix sid="transform">1 0 0 0 0 1 0 0 0 0 1 0 0 0 0 1</matrix>
        <instance_geometry url="#WorkSpace_2-mesh" name="WorkSpace_2">
          <bind_material>
            <technique_common>
              <instance_material symbol="Material_001-material" target="#Material_001-material"/>
            </technique_common>
          </bind_material>
        </instance_geometry>
      </node>
      <node id="Camera" name="Camera" type="NODE">
        <matrix sid="transform">0.6859207 -0.3240135 0.6515582 7.358891 0.7276763 0.3054208 -0.6141704 -6.925791 0 0.8953956 0.4452714 4.958309 0 0 0 1</matrix>
        <instance_camera url="#Camera-camera"/>
      </node>
      <node id="Light" name="Light" type="NODE">
        <matrix sid="transform">-0.2908646 -0.7711008 0.5663932 4.076245 0.9551712 -0.1998834 0.2183912 1.005454 -0.05518906 0.6045247 0.7946723 5.903862 0 0 0 1</matrix>
        <instance_light url="#Light-light"/>
      </node>
    </visual_scene>
  </library_visual_scenes>
  <scene>
    <instance_visual_scene url="#Scene"/>
  </scene>
</COLLADA>
